<?xml version="1.0" encoding="UTF-8" standalone="no"?>
<!-- Created with Inkscape (http://www.inkscape.org/) -->

<svg
   xmlns:dc="http://purl.org/dc/elements/1.1/"
   xmlns:cc="http://creativecommons.org/ns#"
   xmlns:rdf="http://www.w3.org/1999/02/22-rdf-syntax-ns#"
   xmlns:svg="http://www.w3.org/2000/svg"
   xmlns="http://www.w3.org/2000/svg"
   xmlns:sodipodi="http://sodipodi.sourceforge.net/DTD/sodipodi-0.dtd"
   xmlns:inkscape="http://www.inkscape.org/namespaces/inkscape"
   id="svg2"
   version="1.1"
   inkscape:version="0.91 r13725"
   xml:space="preserve"
   width="499.76251"
   height="71.150002"
   viewBox="0 0 499.76251 71.150002"
   sodipodi:docname="logo.svg"><metadata
     id="metadata8"><rdf:RDF><cc:Work
         rdf:about=""><dc:format>image/svg+xml</dc:format><dc:type
           rdf:resource="http://purl.org/dc/dcmitype/StillImage" /><dc:title></dc:title></cc:Work></rdf:RDF></metadata><defs
     id="defs6" /><sodipodi:namedview
     pagecolor="#ffffff"
     bordercolor="#666666"
     borderopacity="1"
     objecttolerance="10"
     gridtolerance="10"
     guidetolerance="10"
     inkscape:pageopacity="0"
     inkscape:pageshadow="2"
     inkscape:window-width="1366"
     inkscape:window-height="704"
     id="namedview4"
     showgrid="false"
     inkscape:zoom="3.9729988"
     inkscape:cx="69.998444"
     inkscape:cy="48.886561"
     inkscape:window-x="0"
     inkscape:window-y="27"
     inkscape:window-maximized="1"
     inkscape:current-layer="g12" /><g
     id="g10"
     inkscape:groupmode="layer"
     inkscape:label="ink_ext_XXXXXX"
     transform="matrix(1.25,0,0,-1.25,0,71.15)"><g
       id="g12"
       transform="scale(0.1,0.1)"><path
         d="m 326.895,514.84 0,-59.66 47.253,29.492 94.524,-56.305 0,-283.543 -94.524,-58.3201 -47.253,26.1411 0,-52.2856 L 234.348,0.0273438 139.836,56.3398 l 0,56.3052 -50.2071,-26.1411 -89.6054625,52.2971 0,287.554 90.5820625,56.305 50.2145,-30.922 0,60.086 91.559,57.305 94.516,-54.289 0,0"
         style="fill:#c4122e;fill-opacity:1;fill-rule:nonzero;stroke:none"
         id="path14"
         inkscape:connector-curvature="0" /><path
         d="m 326.895,514.84 0,-59.66 47.253,29.492 94.524,-56.305 0,-283.543 -94.524,-58.3201 -47.253,26.1411 0,-52.2856 L 234.348,0.0273438 139.836,56.3398 l 0,56.3052 -50.2071,-26.1411 -89.6054625,52.2971 0,287.554 90.5820625,56.305 50.2145,-30.922 0,60.086 91.559,57.305 94.516,-54.289 0,0 z"
         style="fill:none;stroke:#c4122e;stroke-width:0.047;stroke-linecap:butt;stroke-linejoin:miter;stroke-miterlimit:2.61310005;stroke-dasharray:none;stroke-opacity:1"
         id="path16"
         inkscape:connector-curvature="0" /><path
         d="m 317.211,511.285 -80.691,-50.238 -82.973,48.879 78.742,49.176 84.922,-47.817 0,0"
         style="fill:#ffffff;fill-opacity:1;fill-rule:nonzero;stroke:none"
         id="path18"
         inkscape:connector-curvature="0" /><path
         d="m 233.121,451.453 -0.008,-53.332 -49.965,-29.402 0,57.636 -34.511,21.403 0.207,54.293 84.277,-50.598 0,0"
         style="fill:#ffffff;fill-opacity:1;fill-rule:nonzero;stroke:none"
         id="path20"
         inkscape:connector-curvature="0" /><path
         d="m 455.422,425.844 -78.352,-48.735 -78.086,47.809 75.371,49.309 81.067,-48.383 0,0"
         style="fill:#ffffff;fill-opacity:1;fill-rule:nonzero;stroke:none"
         id="path22"
         inkscape:connector-curvature="0" /><path
         d="m 173.891,424.184 -81.6449,-49.266 -79.5273,50.145 77.8046,48.75 83.3676,-49.629 0,0"
         style="fill:#ffffff;fill-opacity:1;fill-rule:nonzero;stroke:none"
         id="path24"
         inkscape:connector-curvature="0" /><path
         d="m 373.945,366.785 -0.207,-82.289 -47.05,29.563 0.207,29.269 -36.868,23.75 0.496,51.461 83.422,-51.754 0,0"
         style="fill:#ffffff;fill-opacity:1;fill-rule:nonzero;stroke:none"
         id="path26"
         inkscape:connector-curvature="0" /><path
         d="m 90.5625,276.934 57.2535,-35.704 0.204,89.168 84.691,-50.554 -0.035,-265.5588 -84.625,49.0429 -0.125,93.0509 -58.1369,31.004 0,-88.7892 -80.62504,47.2542 -0.19922,268.949 81.30466,-51.902 0.293,-85.961"
         style="fill:#ffffff;fill-opacity:1;fill-rule:nonzero;stroke:none"
         id="path28"
         inkscape:connector-curvature="0" /><path
         d="m 314.316,341.238 -78.652,-49.16 -82.699,48.86 82.851,48.457 78.5,-48.157 0,0"
         style="fill:#ffffff;fill-opacity:1;fill-rule:nonzero;stroke:none"
         id="path30"
         inkscape:connector-curvature="0" /><path
         d="M 139.863,307.219 99.9961,281.5 l 40.1019,-24.609 -0.235,50.328 0,0"
         style="fill:#ffffff;fill-opacity:1;fill-rule:nonzero;stroke:none"
         id="path32"
         inkscape:connector-curvature="0" /><path
         d="m 369.316,277.633 -42.421,-24.219 0.199,49.863 42.222,-25.644 0,0"
         style="fill:#ffffff;fill-opacity:1;fill-rule:nonzero;stroke:none"
         id="path34"
         inkscape:connector-curvature="0" /><path
         d="m 374.148,97.0195 -47.101,25.8395 -0.152,38.047 47.253,28.157 0,-92.0435"
         style="fill:#ffffff;fill-opacity:1;fill-rule:nonzero;stroke:none"
         id="path36"
         inkscape:connector-curvature="0" /><path
         d="m 609.918,428.246 38.988,0 0,-118.59 130.231,0 0,118.59 38.988,0 0,-283.476 -38.988,0 0,129.152 -130.231,0 0,-129.152 -38.988,0 0,283.476"
         style="fill:#231f20;fill-opacity:1;fill-rule:nonzero;stroke:none"
         id="path38"
         inkscape:connector-curvature="0" /><path
         d="m 853.598,88.7148 c 4.679,-1.621 10.914,-3.25 17.16,-3.25 32.742,0 43.656,47.1252 43.656,51.1802 0,4.464 -4.672,15.027 -7.008,21.929 l -67.461,193.321 40.168,0 53.41,-171.391 0.786,0 54.582,171.391 37.039,0 -73.301,-211.598 C 938.98,100.492 924.563,54.6055 876.207,54.6055 c -11.695,0 -18.32,1.6133 -24.953,2.8398 l 2.344,31.2695"
         style="fill:#231f20;fill-opacity:1;fill-rule:nonzero;stroke:none"
         id="path40"
         inkscape:connector-curvature="0" /><path
         d="m 1049.71,351.895 34.31,0 0,-32.075 0.78,0 c 9.76,21.52 30.81,36.953 51.86,36.953 10.91,0 16.38,-1.222 24.18,-2.847 l 0,-34.106 c -6.64,2.836 -14.04,3.649 -20.28,3.649 -32.75,0 -54.2,-32.489 -54.2,-84.481 l 0,-94.218 -36.65,0 0,207.125"
         style="fill:#231f20;fill-opacity:1;fill-rule:nonzero;stroke:none"
         id="path42"
         inkscape:connector-curvature="0" /><path
         d="m 1328.49,191.469 c -8.97,-7.715 -37.04,-20.707 -61.22,-20.707 -34.7,0 -65.5,28.023 -65.5,69.043 l 141.93,0 c 0,66.601 -21.45,116.968 -87.73,116.968 -56.15,0 -93.19,-43.457 -93.19,-104.785 0,-67.422 32.37,-112.097 102.94,-112.097 32.75,0 48.73,8.121 62.77,13.406 l 0,38.172 z m -126.72,76.761 c 2.73,26.809 17.55,57.668 53.42,57.668 31.58,0 49.51,-25.996 49.51,-57.668 l -102.93,0"
         style="fill:#231f20;fill-opacity:1;fill-rule:nonzero;stroke:none"
         id="path44"
         inkscape:connector-curvature="0" /><path
         d="m 1364.36,185.375 c 14.42,-9.742 35.08,-14.613 45.62,-14.613 16.76,0 37.43,7.304 37.43,29.644 0,37.774 -86.17,34.516 -86.17,92.598 0,43.051 30.8,63.769 70.19,63.769 17.15,0 31.18,-3.66 45.61,-8.121 l -3.12,-33.304 c -8.19,5.277 -30.02,10.55 -38.6,10.55 -18.72,0 -35.1,-8.121 -35.1,-25.175 0,-42.243 86.18,-30.059 86.18,-96.254 0,-44.274 -33.93,-64.578 -69.41,-64.578 -18.71,0 -37.82,2.027 -54.59,11.375 l 1.96,34.109"
         style="fill:#231f20;fill-opacity:1;fill-rule:nonzero;stroke:none"
         id="path46"
         inkscape:connector-curvature="0" /><path
         d="m 1693.04,351.895 -33.92,0 0,-30.864 -0.79,0 c -10.91,22.336 -30.4,35.742 -65.5,35.742 -60.04,0 -88.89,-56.871 -88.89,-110.07 0,-53.613 28.07,-101.933 85,-101.933 25.34,0 51.07,10.558 66.67,32.082 l 0.78,0 0,-20.309 c 0,-43.863 -23,-71.0782 -61.61,-71.0782 -26.9,0 -43.66,5.2891 -71.73,18.6832 l -3.91,-35.3316 c 31.98,-11.3711 50.3,-14.2109 71.36,-14.2109 71.35,0 102.54,36.1484 102.54,99.0935 l 0,198.196 z m -94.75,-176.262 c -34.31,0 -55.36,34.113 -55.36,73.105 0,35.332 18.32,77.16 55.36,77.16 38.99,0 58.1,-36.953 58.1,-80.003 0,-38.586 -23.79,-70.262 -58.1,-70.262"
         style="fill:#231f20;fill-opacity:1;fill-rule:nonzero;stroke:none"
         id="path48"
         inkscape:connector-curvature="0" /><path
         d="m 1741.38,304.785 c 14.82,12.992 37.04,21.113 57.71,21.113 36.64,0 49.12,-18.269 49.12,-54.019 -14.42,0.82 -24.56,0.82 -38.99,0.82 -37.82,0 -92.4,-16.246 -92.4,-68.23 0,-45.086 30.03,-64.578 72.91,-64.578 33.53,0 53.02,19.089 61.61,31.679 l 0.77,0 0,-26.8 34.31,0 c -0.78,6.085 -1.56,17.062 -1.56,40.605 l 0,85.695 c 0,56.457 -23,85.703 -79.92,85.703 -25.35,0 -47.19,-8.121 -65.51,-19.503 l 1.95,-32.485 z m 79.54,78.789 36.65,0 0,40.614 -36.65,0 0,-40.614 z m -63.95,0 36.66,0 0,40.614 -36.66,0 0,-40.614 z m 91.24,-158.394 c 0,-30.867 -19.1,-54.418 -55.36,-54.418 -16.77,0 -37.04,11.777 -37.04,33.707 0,36.554 49.13,39.797 69.01,39.797 7.8,0 15.6,-0.813 23.39,-0.813 l 0,-18.273"
         style="fill:#231f20;fill-opacity:1;fill-rule:nonzero;stroke:none"
         id="path50"
         inkscape:connector-curvature="0" /><path
         d="m 1914.49,185.375 c 14.43,-9.742 35.1,-14.613 45.63,-14.613 16.76,0 37.43,7.304 37.43,29.644 0,37.774 -86.18,34.516 -86.18,92.598 0,43.051 30.81,63.769 70.19,63.769 17.15,0 31.19,-3.66 45.62,-8.121 l -3.13,-33.304 c -8.18,5.277 -30,10.55 -38.59,10.55 -18.72,0 -35.09,-8.121 -35.09,-25.175 0,-42.243 86.16,-30.059 86.16,-96.254 0,-44.274 -33.92,-64.578 -69.41,-64.578 -18.71,0 -37.81,2.027 -54.58,11.375 l 1.95,34.109"
         style="fill:#231f20;fill-opacity:1;fill-rule:nonzero;stroke:none"
         id="path52"
         inkscape:connector-curvature="0" /><path
         d="m 2180.8,321.031 -52.64,0 0,-113.316 c 0,-23.961 14.03,-36.953 30.8,-36.953 11.3,0 19.5,3.652 24.96,7.304 l 0,-32.484 c -8.19,-2.441 -19.5,-5.691 -31.2,-5.691 -37.83,0 -61.23,18.683 -61.23,60.109 l 0,121.031 -44.82,0 0,30.864 44.82,0 0,47.925 36.67,12.188 0,-60.113 52.64,0 0,-30.864"
         style="fill:#231f20;fill-opacity:1;fill-rule:nonzero;stroke:none"
         id="path54"
         inkscape:connector-curvature="0" /><path
         d="m 2246.68,321.031 -46.79,0 0,30.864 46.79,0 0,19.085 c 0,50.364 12.49,83.262 66.68,83.262 9.35,0 17.16,-1.215 24.56,-2.429 l -1.55,-30.872 c -4.3,1.625 -11.32,2.438 -17.56,2.438 -31.58,0 -35.47,-21.121 -35.47,-49.145 l 0,-22.339 52.64,0 0,-30.864 -52.64,0 0,-176.261 -36.66,0 0,176.261"
         style="fill:#231f20;fill-opacity:1;fill-rule:nonzero;stroke:none"
         id="path56"
         inkscape:connector-curvature="0" /><path
         d="m 2339.86,248.336 c 0,-59.297 41.32,-108.445 101.39,-108.445 59.65,0 100.98,49.148 100.98,108.445 0,62.949 -40.56,108.437 -100.98,108.437 -60.85,0 -101.39,-45.488 -101.39,-108.437 z m 115.02,135.238 36.66,0 0,40.614 -36.66,0 0,-40.614 z m -63.94,0 36.66,0 0,40.614 -36.66,0 0,-40.614 z m -12.09,-135.238 c 0,39.387 23.01,77.562 62.4,77.562 38.98,0 61.98,-38.175 61.98,-77.562 0,-36.957 -19.1,-77.574 -61.98,-77.574 -43.3,0 -62.4,40.617 -62.4,77.574"
         style="fill:#231f20;fill-opacity:1;fill-rule:nonzero;stroke:none"
         id="path58"
         inkscape:connector-curvature="0" /><path
         d="m 2569.89,351.895 34.32,0 0,-32.075 0.77,0 c 9.76,21.52 30.81,36.953 51.87,36.953 10.91,0 16.37,-1.222 24.17,-2.847 l 0,-34.106 c -6.63,2.836 -14.03,3.649 -20.28,3.649 -32.74,0 -54.2,-32.489 -54.2,-84.481 l 0,-94.218 -36.65,0 0,207.125"
         style="fill:#231f20;fill-opacity:1;fill-rule:nonzero;stroke:none"
         id="path60"
         inkscape:connector-curvature="0" /><path
         d="m 2848.67,191.469 c -8.95,-7.715 -37.04,-20.707 -61.21,-20.707 -34.71,0 -65.51,28.023 -65.51,69.043 l 141.93,0 c 0,66.601 -21.45,116.968 -87.74,116.968 -56.13,0 -93.16,-43.457 -93.16,-104.785 0,-67.422 32.35,-112.097 102.92,-112.097 32.75,0 48.75,8.121 62.77,13.406 l 0,38.172 z m -126.72,76.761 c 2.75,26.809 17.55,57.668 53.42,57.668 31.58,0 49.52,-25.996 49.52,-57.668 l -102.94,0"
         style="fill:#231f20;fill-opacity:1;fill-rule:nonzero;stroke:none"
         id="path62"
         inkscape:connector-curvature="0" /><path
         d="m 2891.57,351.895 35.48,0 0,-32.891 0.77,0 c 10.91,23.551 37.44,37.769 65.12,37.769 51.47,0 74.47,-33.304 74.47,-88.945 l 0,-123.058 -36.67,0 0,107.218 c 0,48.328 -10.11,71.883 -42.1,73.91 -41.72,0 -60.43,-34.918 -60.43,-85.285 l 0,-95.843 -36.64,0 0,207.125"
         style="fill:#231f20;fill-opacity:1;fill-rule:nonzero;stroke:none"
         id="path64"
         inkscape:connector-curvature="0" /><path
         d="m 3150.08,398.199 -41.36,0 0,43.051 41.36,0 0,-43.051 z m -39.02,-46.304 36.66,0 0,-207.125 -36.66,0 0,207.125"
         style="fill:#231f20;fill-opacity:1;fill-rule:nonzero;stroke:none"
         id="path66"
         inkscape:connector-curvature="0" /><path
         d="m 3193.34,351.895 35.49,0 0,-32.891 0.77,0 c 10.91,23.551 37.43,37.769 65.11,37.769 51.47,0 74.47,-33.304 74.47,-88.945 l 0,-123.058 -36.65,0 0,107.218 c 0,48.328 -10.13,71.883 -42.11,73.91 -41.72,0 -60.43,-34.918 -60.43,-85.285 l 0,-95.843 -36.65,0 0,207.125"
         style="fill:#231f20;fill-opacity:1;fill-rule:nonzero;stroke:none"
         id="path68"
         inkscape:connector-curvature="0" /><path
         d="m 3585.96,351.895 -33.92,0 0,-30.864 -0.78,0 c -10.92,22.336 -30.4,35.742 -65.5,35.742 -60.06,0 -88.89,-56.871 -88.89,-110.07 0,-53.613 28.06,-101.933 84.99,-101.933 25.35,0 51.08,10.558 66.68,32.082 l 0.78,0 0,-20.309 c 0,-43.863 -23.01,-71.0782 -61.61,-71.0782 -26.91,0 -43.68,5.2891 -71.73,18.6832 l -3.91,-35.3316 c 31.96,-11.3711 50.29,-14.2109 71.35,-14.2109 71.35,0 102.54,36.1484 102.54,99.0935 l 0,198.196 z m -94.74,-176.262 c -34.32,0 -55.37,34.113 -55.37,73.105 0,35.332 18.33,77.16 55.37,77.16 38.99,0 58.1,-36.953 58.1,-80.003 0,-38.586 -23.79,-70.262 -58.1,-70.262"
         style="fill:#231f20;fill-opacity:1;fill-rule:nonzero;stroke:none"
         id="path70"
         inkscape:connector-curvature="0" /><path
         d="m 3781.3,191.469 c -8.97,-7.715 -37.05,-20.707 -61.22,-20.707 -34.71,0 -65.49,28.023 -65.49,69.043 l 141.91,0 c 0,66.601 -21.45,116.968 -87.72,116.968 -56.15,0 -93.18,-43.457 -93.18,-104.785 0,-67.422 32.35,-112.097 102.92,-112.097 32.76,0 48.74,8.121 62.78,13.406 l 0,38.172 z m -126.71,76.761 c 2.72,26.809 17.55,57.668 53.41,57.668 31.57,0 49.52,-25.996 49.52,-57.668 l -102.93,0"
         style="fill:#231f20;fill-opacity:1;fill-rule:nonzero;stroke:none"
         id="path72"
         inkscape:connector-curvature="0" /><path
         d="m 3822.25,351.895 35.46,0 0,-32.891 0.79,0 c 10.9,23.551 37.43,37.769 65.1,37.769 51.48,0 74.49,-33.304 74.49,-88.945 l 0,-123.058 -36.65,0 0,107.218 c 0,48.328 -10.16,71.883 -42.12,73.91 -41.72,0 -60.43,-34.918 -60.43,-85.285 l 0,-95.843 -36.64,0 0,207.125"
         style="fill:#231f20;fill-opacity:1;fill-rule:nonzero;stroke:none"
         id="path74"
         inkscape:connector-curvature="0" /></g></g></svg>